<svg width="23.333008" height="36.926758" viewBox="0 0 23.333 36.9268" fill="none" xmlns="http://www.w3.org/2000/svg" xmlns:xlink="http://www.w3.org/1999/xlink">
	<desc>
			Created with Pixso.
	</desc>
	<defs/>
	<path id="Rectangle (Stroke)" d="M5.83301 3.33301C4.45215 3.33301 3.33301 4.45215 3.33301 5.83301L3.33301 31.0938C3.33301 32.4746 4.45215 33.5938 5.83301 33.5938L17.5 33.5938C18.8809 33.5938 20 32.4746 20 31.0938L20 5.83301C20 4.45215 18.8809 3.33301 17.5 3.33301L17.3613 3.33301L16.9551 4.30762C16.6963 4.92871 16.0898 5.33301 15.417 5.33301L7.91699 5.33301C7.24414 5.33301 6.63672 4.92871 6.37793 4.30762L5.97266 3.33301L5.83301 3.33301ZM0 5.83301C0 2.61133 2.61133 0 5.83301 0L17.5 0C20.7217 0 23.333 2.61133 23.333 5.83301L23.333 31.0938C23.333 34.3154 20.7217 36.9268 17.5 36.9268L5.83301 36.9268C2.61133 36.9268 0 34.3154 0 31.0938L0 5.83301Z" fill="#FF5A30" fill-opacity="1.000000" fill-rule="evenodd"/>
</svg>
