<svg width="48.000000" height="48.000000" viewBox="0 0 48 48" fill="none" xmlns="http://www.w3.org/2000/svg" xmlns:xlink="http://www.w3.org/1999/xlink">
	<desc>
			Created with Pixso.
	</desc>
	<defs/>
	<circle id="shape" cx="24.000000" cy="24.000000" r="24.000000" fill="#FFFFFF" fill-opacity="1.000000"/>
	<path id="Line (Stroke)" d="M21.207 29.207C20.8164 29.5977 20.1836 29.5977 19.793 29.207L15.293 24.707C14.9023 24.3164 14.9023 23.6836 15.293 23.293L19.793 18.793C20.1836 18.4023 20.8164 18.4023 21.207 18.793C21.5977 19.1836 21.5977 19.8164 21.207 20.207L18.4141 23L32 23C32.5522 23 33 23.4473 33 24C33 24.5527 32.5522 25 32 25L18.4141 25L21.207 27.793C21.5977 28.1836 21.5977 28.8164 21.207 29.207Z" fill="#424551" fill-opacity="1.000000" fill-rule="evenodd"/>
</svg>
