<svg width="52.000000" height="52.000000" viewBox="0 0 52 52" fill="none" xmlns="http://www.w3.org/2000/svg" xmlns:xlink="http://www.w3.org/1999/xlink">
	<desc>
			Created with Pixso.
	</desc>
	<defs>
		<clipPath id="clip35_796">
			<rect id="ic-pantone" width="52.000000" height="52.000000" transform="translate(-0.500000 0.000000)" fill="white" fill-opacity="0"/>
		</clipPath>
	</defs>
	<g clip-path="url(#clip35_796)">
		<path id="Vector" d="M10.26 36.66C7.74 36.66 5.69 38.71 5.69 41.23C5.69 43.75 7.74 45.8 10.26 45.8C12.78 45.8 14.83 43.75 14.83 41.23C14.83 38.71 12.78 36.66 10.26 36.66ZM10.26 42.75C9.42 42.75 8.74 42.07 8.74 41.23C8.74 40.39 9.42 39.71 10.26 39.71C11.1 39.71 11.78 40.39 11.78 41.23C11.78 42.07 11.1 42.75 10.26 42.75Z" fill="#FF5A30" fill-opacity="1.000000" fill-rule="nonzero"/>
		<path id="Vector" d="M48.75 30.94C49.79 29.54 49.98 27.58 49.03 25.94L42.94 15.29C41.89 13.46 39.66 12.63 37.68 13.16C38.11 11.26 37.28 9.23 35.51 8.21L24.95 2.11C23.45 1.25 21.64 1.33 20.26 2.19C19.45 0.88 18.01 0 16.35 0L4.07 0C1.54 0 -0.5 2.05 -0.5 4.57C-0.5 5.62 -0.5 46.21 -0.5 47.42C-0.5 49.94 1.54 52 4.07 52C5.25 52 41.13 52 46.92 52C49.45 52 51.5 49.94 51.5 47.42L51.5 35.14C51.5 33.26 50.36 31.65 48.75 30.94ZM17.88 47.42C17.88 48.26 17.19 48.95 16.35 48.95L4.07 48.95C3.23 48.95 2.54 48.26 2.54 47.42C2.54 46.73 2.54 34.28 2.54 33.61L17.88 33.61L17.88 47.42ZM17.88 30.57L2.54 30.57L2.54 18.28L17.88 18.28L17.88 30.57ZM17.88 15.23L2.54 15.23L2.54 4.57C2.54 3.73 3.23 3.04 4.07 3.04L16.35 3.04C17.19 3.04 17.88 3.73 17.88 4.57L17.88 15.23ZM20.92 6.05L21.35 5.31C21.77 4.58 22.7 4.33 23.43 4.75L33.98 10.85C34.71 11.27 34.96 12.2 34.54 12.93L32.78 15.99C32.74 16.06 32.7 16.12 32.66 16.19L20.92 36.6L20.92 6.05ZM20.92 42.71L35.17 17.95L38.11 16.25C38.86 15.82 39.88 16.08 40.3 16.81L46.39 27.46C46.81 28.19 46.57 29.12 45.83 29.55C44.74 30.18 22 43.35 20.92 43.97L20.92 42.71ZM48.45 47.42C48.45 48.26 47.76 48.95 46.92 48.95L20.66 48.95C20.83 48.49 20.92 48 20.92 47.49L44.89 33.61L46.92 33.61C47.76 33.61 48.45 34.3 48.45 35.14L48.45 47.42Z" fill="#FF5A30" fill-opacity="1.000000" fill-rule="nonzero"/>
	</g>
</svg>
