<svg width="52.000000" height="52.000000" viewBox="0 0 52 52" fill="none" xmlns="http://www.w3.org/2000/svg" xmlns:xlink="http://www.w3.org/1999/xlink">
	<desc>
			Created with Pixso.
	</desc>
	<defs>
		<clipPath id="clip35_762">
			<rect width="52.000000" height="52.000000" transform="translate(-0.500000 0.000000)" fill="white" fill-opacity="0"/>
		</clipPath>
	</defs>
	<g clip-path="url(#clip35_762)">
		<path d="M45.4 3.14C43.15 3.14 41.18 4.37 40.12 6.19L1.02 6.19C0.18 6.19 -0.5 6.87 -0.5 7.71L-0.5 47.32C-0.5 48.16 0.18 48.85 1.02 48.85L45.4 48.85C48.76 48.85 51.5 46.11 51.5 42.75L51.5 9.24C51.5 5.88 48.76 3.14 45.4 3.14ZM45.4 45.8C44.81 45.8 3.1 45.8 2.54 45.8L2.54 9.24L39.31 9.24L39.31 42.75C39.31 43.59 39.99 44.28 40.83 44.28C41.67 44.28 42.35 43.59 42.35 42.75C42.35 41.07 43.72 39.71 45.4 39.71C47.08 39.71 48.45 41.07 48.45 42.75C48.45 44.43 47.08 45.8 45.4 45.8ZM48.45 37.48C47.55 36.96 46.51 36.66 45.4 36.66C44.29 36.66 43.25 36.96 42.35 37.48L42.35 9.24C42.35 7.56 43.72 6.19 45.4 6.19C47.08 6.19 48.45 7.56 48.45 9.24L48.45 37.48Z" fill="#FF5A30" fill-opacity="1.000000" fill-rule="nonzero"/>
		<path d="M34.64 12.28L7.21 12.28C6.37 12.28 5.69 12.97 5.69 13.81L5.69 41.23C5.69 42.07 6.37 42.75 7.21 42.75L22.45 42.75C22.85 42.75 23.24 42.59 23.53 42.31C23.81 42.02 23.97 41.63 23.97 41.23L23.97 38.18C23.97 36.2 25.25 34.5 27.02 33.87L27.02 41.23C27.02 42.07 27.7 42.75 28.54 42.75L34.64 42.75C35.48 42.75 36.16 42.07 36.16 41.23L36.16 13.81C36.16 12.97 35.48 12.28 34.64 12.28ZM33.11 39.71L30.07 39.71L30.07 32.09C30.07 31.25 29.38 30.57 28.54 30.57C24.34 30.57 20.92 33.98 20.92 38.18L20.92 39.71L8.74 39.71L8.74 30.57L14.83 30.57L14.83 35.14C14.83 35.98 15.51 36.66 16.35 36.66C17.2 36.66 17.88 35.98 17.88 35.14L17.88 29.04C17.88 28.2 17.2 27.52 16.35 27.52L8.74 27.52L8.74 15.33L17.88 15.33L17.88 21.42L13.31 21.42C12.47 21.42 11.78 22.11 11.78 22.95C11.78 23.79 12.47 24.47 13.31 24.47L19.4 24.47L25.5 24.47C26.34 24.47 27.02 23.79 27.02 22.95C27.02 22.11 26.34 21.42 25.5 21.42L20.92 21.42L20.92 15.33L33.11 15.33L33.11 39.71Z" fill="#FF5A30" fill-opacity="1.000000" fill-rule="nonzero"/>
	</g>
</svg>
