<svg width="52.000000" height="52.000000" viewBox="0 0 52 52" fill="none" xmlns="http://www.w3.org/2000/svg" xmlns:xlink="http://www.w3.org/1999/xlink">
	<desc>
			Created with Pixso.
	</desc>
	<defs>
		<clipPath id="clip35_767">
			<rect id="ic-construction" width="52.000000" height="52.000000" transform="translate(-0.500000 0.000000)" fill="white" fill-opacity="0"/>
		</clipPath>
	</defs>
	<g clip-path="url(#clip35_767)">
		<path id="Vector" d="M49.97 27.52C50.81 27.52 51.5 26.84 51.5 26L51.5 14.62C51.5 13.78 50.81 13.1 49.97 13.1C48.91 13.1 28.16 13.1 27.02 13.1L27.02 3.25C27.02 2.4 26.34 1.72 25.5 1.72L9.25 1.72C8.4 1.72 7.72 2.4 7.72 3.25L7.72 13.1L1.02 13.1C0.18 13.1 -0.5 13.78 -0.5 14.62L-0.5 26C-0.5 26.84 0.18 27.52 1.02 27.52L7.72 27.52L7.72 35.85L1.02 35.85C0.18 35.85 -0.5 36.53 -0.5 37.37L-0.5 48.75C-0.5 49.59 0.18 50.27 1.02 50.27L49.97 50.27C50.81 50.27 51.5 49.59 51.5 48.75L51.5 37.37C51.5 36.53 50.81 35.85 49.97 35.85L43.27 35.85L43.27 27.52L49.97 27.52ZM48.45 24.47C46.82 24.47 36.75 24.47 35.14 24.47L35.14 16.14L48.45 16.14L48.45 24.47ZM32.1 24.47C30.5 24.47 20.5 24.47 18.89 24.47L18.89 16.14L32.1 16.14L32.1 24.47ZM10.77 4.77L23.97 4.77L23.97 13.1C22.38 13.1 12.37 13.1 10.77 13.1L10.77 4.77ZM2.54 24.47L2.54 16.14L15.85 16.14L15.85 24.47C14.23 24.47 4.17 24.47 2.54 24.47ZM10.77 27.52L23.97 27.52L23.97 35.85C22.38 35.85 12.37 35.85 10.77 35.85L10.77 27.52ZM2.54 38.89L15.85 38.89L15.85 47.22L2.54 47.22L2.54 38.89ZM18.89 38.89L32.1 38.89L32.1 47.22L18.89 47.22L18.89 38.89ZM48.45 38.89L48.45 47.22L35.14 47.22L35.14 38.89L48.45 38.89ZM40.22 35.85C38.63 35.85 28.62 35.85 27.02 35.85L27.02 27.52L40.22 27.52L40.22 35.85Z" fill="#FF5A30" fill-opacity="1.000000" fill-rule="nonzero"/>
	</g>
</svg>
