<svg width="52.000000" height="52.000000" viewBox="0 0 52 52" fill="none" xmlns="http://www.w3.org/2000/svg" xmlns:xlink="http://www.w3.org/1999/xlink">
	<desc>
			Created with Pixso.
	</desc>
	<defs>
		<clipPath id="clip35_758">
			<rect width="52.000000" height="52.000000" transform="translate(-0.500000 0.000000)" fill="white" fill-opacity="0"/>
		</clipPath>
	</defs>
	<g clip-path="url(#clip35_758)">
		<path d="M42.35 4.57C42.35 2.05 40.3 0 37.78 0L7.32 0C4.8 0 2.75 2.05 2.75 4.57L2.75 13.71C2.75 16.23 4.8 18.28 7.32 18.28L37.78 18.28C40.3 18.28 42.35 16.23 42.35 13.71L42.35 12.18L43.88 12.18C44.72 12.18 45.4 12.87 45.4 13.71L45.4 19.8C45.4 20.64 44.72 21.32 43.88 21.32L25.6 21.32C23.08 21.32 21.03 23.37 21.03 25.89L21.03 30.46L19.5 30.46C18.66 30.46 17.98 31.15 17.98 31.99L17.98 38L16.46 44.19C15.47 48.15 18.46 52 22.55 52C26.64 52 29.63 48.15 28.65 44.2L27.12 38L27.12 31.99C27.12 31.15 26.44 30.46 25.6 30.46L24.07 30.46L24.07 25.89C24.07 25.05 24.76 24.37 25.6 24.37L43.88 24.37C46.4 24.37 48.45 22.32 48.45 19.8L48.45 13.71C48.45 11.19 46.4 9.14 43.88 9.14L42.35 9.14L42.35 4.57ZM24.07 33.51L24.07 36.66L21.03 36.66L21.03 33.51L24.07 33.51ZM22.55 48.95C20.45 48.95 18.9 46.98 19.41 44.92L20.7 39.71L24.4 39.71L25.69 44.93C26.2 46.97 24.66 48.95 22.55 48.95ZM7.32 3.04L37.78 3.04C38.62 3.04 39.31 3.73 39.31 4.57L39.31 6.09L34.74 6.09C33.26 6.09 31.36 6.64 29.17 7.29C26.21 8.15 22.85 9.14 19.5 9.14C16.24 9.14 13.93 8.18 11.9 7.34C10.35 6.7 8.88 6.09 7.32 6.09L5.79 6.09L5.79 4.57C5.79 3.73 6.48 3.04 7.32 3.04ZM39.31 13.71C39.31 14.55 38.62 15.23 37.78 15.23L7.32 15.23C6.48 15.23 5.79 14.55 5.79 13.71L5.79 9.14L7.32 9.14C8.27 9.14 9.36 9.58 10.74 10.16C12.92 11.06 15.63 12.18 19.5 12.18C23.29 12.18 27.03 11.09 30.03 10.21C31.91 9.66 33.69 9.14 34.74 9.14L39.31 9.14L39.31 13.71Z" fill="#FF5A30" fill-opacity="1.000000" fill-rule="nonzero"/>
	</g>
</svg>
